<!DOCTYPE svg PUBLIC "-//W3C//DTD SVG 1.1//EN" "http://www.w3.org/Graphics/SVG/1.1/DTD/svg11.dtd">
<!-- Uploaded to: SVG Repo, www.svgrepo.com, Transformed by: SVG Repo Mixer Tools -->
<svg fill="#0f8000" width="800px" height="800px" viewBox="-1.6 -1.6 35.20 35.20" style="fill-rule:evenodd;clip-rule:evenodd;stroke-linejoin:round;stroke-miterlimit:2;" version="1.1" xml:space="preserve" xmlns="http://www.w3.org/2000/svg" xmlns:serif="http://www.serif.com/" xmlns:xlink="http://www.w3.org/1999/xlink" stroke="#0f8000">
<g id="SVGRepo_bgCarrier" stroke-width="0"/>
<g id="SVGRepo_iconCarrier"> <g transform="matrix(1,0,0,1,-96,-96)"> <g transform="matrix(1.16667,0,0,1,90.4759,97.1554)"> <path d="M28.409,8.526C28.55,7.925 28.442,7.281 28.118,6.786C27.794,6.291 27.29,6 26.756,6C21.587,6 9.286,6 9.286,6L11.857,17L25.119,17C25.892,17 26.57,16.396 26.773,15.526C27.191,13.737 27.903,10.692 28.409,8.526Z" style="fill:rgb(144,224,239);"/> </g> <g transform="matrix(1.33333,0,0,1.33333,87.6426,86.1554)"> <circle cx="15.5" cy="28.5" r="1.5" style="fill:rgb(144,224,239);"/> </g> <g transform="matrix(1.33333,0,0,1.33333,97.6426,86.1554)"> <circle cx="15.5" cy="28.5" r="1.5" style="fill:rgb(144,224,239);"/> </g> <g transform="matrix(1.25,0,0,1.25,-32.75,-25.75)"> <circle cx="123" cy="103" r="4" style="fill:rgb(144,224,239);"/> </g> <path d="M108,121C106.344,121 105,122.344 105,124C105,125.656 106.344,127 108,127C109.656,127 111,125.656 111,124C111,122.344 109.656,121 108,121ZM118,121C116.344,121 115,122.344 115,124C115,125.656 116.344,127 118,127C119.656,127 121,125.656 121,124C121,122.344 119.656,121 118,121ZM108,123C108.552,123 109,123.448 109,124C109,124.552 108.552,125 108,125C107.448,125 107,124.552 107,124C107,123.448 107.448,123 108,123ZM118,123C118.552,123 119,123.448 119,124C119,124.552 118.552,125 118,125C117.448,125 117,124.552 117,124C117,123.448 117.448,123 118,123ZM115.083,102L101.721,102L101.177,100.368C100.904,99.551 100.14,99 99.279,99C98.706,99 98,99 98,99C97.448,99 97,99.448 97,100C97,100.552 97.448,101 98,101L99.279,101L100.043,103.29L103.032,114.253L103.651,116.728C103.985,118.063 105.185,119 106.562,119L121,119C121.552,119 122,118.552 122,118C122,117.448 121.552,117 121,117L106.562,117C106.103,117 105.703,116.688 105.591,116.243L105.281,115L119.472,115C120.825,115 122.011,114.095 122.367,112.789L123.483,108.696C123.506,108.613 123.517,108.529 123.518,108.447C125.573,107.494 127,105.412 127,103C127,99.689 124.311,97 121,97C118.029,97 115.56,99.164 115.083,102ZM115.083,104L102.309,104C102.309,104 104.764,113 104.764,113C104.764,113 119.472,113 119.472,113C119.923,113 120.318,112.698 120.437,112.263L121.33,108.991C121.221,108.997 121.111,109 121,109C118.029,109 115.56,106.836 115.083,104ZM121,99C123.208,99 125,100.792 125,103C125,105.208 123.208,107 121,107C118.792,107 117,105.208 117,103C117,100.792 118.792,99 121,99ZM120,102L119,102C118.448,102 118,102.448 118,103C118,103.552 118.448,104 119,104L120,104L120,105C120,105.552 120.448,106 121,106C121.552,106 122,105.552 122,105L122,104L123,104C123.552,104 124,103.552 124,103C124,102.448 123.552,102 123,102L122,102L122,101C122,100.448 121.552,100 121,100C120.448,100 120,100.448 120,101L120,102Z" style="fill:rgb(25,144,167);"/> </g> </g>
</svg>